<mxfile host="Electron" modified="2023-05-24T03:36:57.959Z" agent="Mozilla/5.0 (Windows NT 10.0; Win64; x64) AppleWebKit/537.36 (KHTML, like Gecko) draw.io/21.2.8 Chrome/112.0.5615.165 Electron/24.2.0 Safari/537.36" etag="C-TFm_d2xLK0khyosAXL" version="21.2.8" type="device" pages="9">
  <diagram name="Page-1" id="-rDg5QQmsPyUOmkQ-tvM">
    <mxGraphModel dx="1221" dy="725" grid="0" gridSize="10" guides="1" tooltips="1" connect="1" arrows="1" fold="1" page="0" pageScale="1" pageWidth="827" pageHeight="1169" background="#ffffff" math="0" shadow="1">
      <root>
        <mxCell id="0" />
        <mxCell id="1" parent="0" />
        <mxCell id="SQr2vhlfjh-zUIq2BoOA-1" value="&lt;font style=&quot;font-size: 40px;&quot;&gt;0&lt;/font&gt;" style="whiteSpace=wrap;html=1;aspect=fixed;strokeWidth=2;" vertex="1" parent="1">
          <mxGeometry x="160" y="40" width="80" height="80" as="geometry" />
        </mxCell>
        <mxCell id="SQr2vhlfjh-zUIq2BoOA-2" value="&lt;font style=&quot;font-size: 40px;&quot;&gt;1&lt;/font&gt;" style="whiteSpace=wrap;html=1;aspect=fixed;strokeWidth=2;" vertex="1" parent="1">
          <mxGeometry x="240" y="40" width="80" height="80" as="geometry" />
        </mxCell>
        <mxCell id="SQr2vhlfjh-zUIq2BoOA-3" value="&lt;font style=&quot;font-size: 40px;&quot;&gt;2&lt;/font&gt;" style="whiteSpace=wrap;html=1;aspect=fixed;strokeWidth=2;" vertex="1" parent="1">
          <mxGeometry x="320" y="40" width="80" height="80" as="geometry" />
        </mxCell>
        <mxCell id="SQr2vhlfjh-zUIq2BoOA-4" value="&lt;font style=&quot;font-size: 40px;&quot;&gt;3&lt;/font&gt;" style="whiteSpace=wrap;html=1;aspect=fixed;strokeWidth=2;fillColor=#e1d5e7;strokeColor=#9673a6;" vertex="1" parent="1">
          <mxGeometry x="400" y="40" width="80" height="80" as="geometry" />
        </mxCell>
        <mxCell id="SQr2vhlfjh-zUIq2BoOA-5" value="&lt;font style=&quot;font-size: 40px;&quot;&gt;6&lt;/font&gt;" style="whiteSpace=wrap;html=1;aspect=fixed;strokeWidth=2;fillColor=#f5f5f5;fontColor=#333333;strokeColor=#666666;" vertex="1" parent="1">
          <mxGeometry x="480" y="40" width="80" height="80" as="geometry" />
        </mxCell>
        <mxCell id="SQr2vhlfjh-zUIq2BoOA-7" value="" style="endArrow=classic;html=1;rounded=0;strokeColor=#000000;" edge="1" parent="1">
          <mxGeometry width="50" height="50" relative="1" as="geometry">
            <mxPoint x="199.5" y="173" as="sourcePoint" />
            <mxPoint x="199.5" y="133" as="targetPoint" />
          </mxGeometry>
        </mxCell>
        <mxCell id="SQr2vhlfjh-zUIq2BoOA-8" value="&lt;font style=&quot;font-size: 20px;&quot;&gt;left index&lt;/font&gt;" style="text;html=1;strokeColor=none;fillColor=none;align=center;verticalAlign=middle;whiteSpace=wrap;rounded=0;strokeWidth=0;" vertex="1" parent="1">
          <mxGeometry x="150" y="180" width="100" height="30" as="geometry" />
        </mxCell>
        <mxCell id="SQr2vhlfjh-zUIq2BoOA-15" value="&lt;font style=&quot;font-size: 40px;&quot;&gt;5&lt;/font&gt;" style="whiteSpace=wrap;html=1;aspect=fixed;strokeWidth=2;fillColor=#f5f5f5;fontColor=#333333;strokeColor=#666666;" vertex="1" parent="1">
          <mxGeometry x="560" y="40" width="80" height="80" as="geometry" />
        </mxCell>
        <mxCell id="SQr2vhlfjh-zUIq2BoOA-18" value="" style="endArrow=classic;html=1;rounded=0;strokeColor=#000000;" edge="1" parent="1">
          <mxGeometry width="50" height="50" relative="1" as="geometry">
            <mxPoint x="360" y="241" as="sourcePoint" />
            <mxPoint x="359.5" y="133" as="targetPoint" />
          </mxGeometry>
        </mxCell>
        <mxCell id="SQr2vhlfjh-zUIq2BoOA-19" value="&lt;font style=&quot;font-size: 20px;&quot;&gt;pivot index&lt;/font&gt;" style="text;html=1;strokeColor=none;fillColor=none;align=center;verticalAlign=middle;whiteSpace=wrap;rounded=0;strokeWidth=0;" vertex="1" parent="1">
          <mxGeometry x="310" y="246" width="100" height="30" as="geometry" />
        </mxCell>
        <mxCell id="SQr2vhlfjh-zUIq2BoOA-20" value="" style="endArrow=classic;html=1;rounded=0;strokeColor=#000000;" edge="1" parent="1">
          <mxGeometry width="50" height="50" relative="1" as="geometry">
            <mxPoint x="280" y="201" as="sourcePoint" />
            <mxPoint x="280" y="131" as="targetPoint" />
          </mxGeometry>
        </mxCell>
        <mxCell id="SQr2vhlfjh-zUIq2BoOA-21" value="&lt;font style=&quot;font-size: 20px;&quot;&gt;right index&lt;/font&gt;" style="text;html=1;strokeColor=none;fillColor=none;align=center;verticalAlign=middle;whiteSpace=wrap;rounded=0;strokeWidth=0;" vertex="1" parent="1">
          <mxGeometry x="232" y="213" width="100" height="30" as="geometry" />
        </mxCell>
      </root>
    </mxGraphModel>
  </diagram>
  <diagram id="9xmVzFEmIpRb8Fu-5laX" name="Page-2">
    <mxGraphModel dx="821" dy="725" grid="0" gridSize="10" guides="1" tooltips="1" connect="1" arrows="1" fold="1" page="0" pageScale="1" pageWidth="827" pageHeight="1169" math="0" shadow="0">
      <root>
        <mxCell id="0" />
        <mxCell id="1" parent="0" />
        <mxCell id="1CfiziOxMAKr9xstee6A-1" value="&lt;font style=&quot;font-size: 40px;&quot;&gt;0&lt;/font&gt;" style="whiteSpace=wrap;html=1;aspect=fixed;strokeWidth=2;" vertex="1" parent="1">
          <mxGeometry x="551" y="329" width="80" height="80" as="geometry" />
        </mxCell>
        <mxCell id="1CfiziOxMAKr9xstee6A-2" value="&lt;font style=&quot;font-size: 40px;&quot;&gt;1&lt;/font&gt;" style="whiteSpace=wrap;html=1;aspect=fixed;strokeWidth=2;" vertex="1" parent="1">
          <mxGeometry x="631" y="329" width="80" height="80" as="geometry" />
        </mxCell>
        <mxCell id="1CfiziOxMAKr9xstee6A-3" value="&lt;font style=&quot;font-size: 40px;&quot;&gt;2&lt;/font&gt;" style="whiteSpace=wrap;html=1;aspect=fixed;strokeWidth=2;" vertex="1" parent="1">
          <mxGeometry x="711" y="329" width="80" height="80" as="geometry" />
        </mxCell>
        <mxCell id="1CfiziOxMAKr9xstee6A-4" value="&lt;font style=&quot;font-size: 40px;&quot;&gt;3&lt;/font&gt;" style="whiteSpace=wrap;html=1;aspect=fixed;strokeWidth=2;fillColor=#e1d5e7;strokeColor=#9673a6;" vertex="1" parent="1">
          <mxGeometry x="791" y="329" width="80" height="80" as="geometry" />
        </mxCell>
        <mxCell id="1CfiziOxMAKr9xstee6A-5" value="&lt;font style=&quot;font-size: 40px;&quot;&gt;6&lt;/font&gt;" style="whiteSpace=wrap;html=1;aspect=fixed;strokeWidth=2;fillColor=#f5f5f5;fontColor=#333333;strokeColor=#666666;" vertex="1" parent="1">
          <mxGeometry x="871" y="329" width="80" height="80" as="geometry" />
        </mxCell>
        <mxCell id="1CfiziOxMAKr9xstee6A-6" value="" style="endArrow=classic;html=1;rounded=0;strokeColor=#000000;" edge="1" parent="1">
          <mxGeometry width="50" height="50" relative="1" as="geometry">
            <mxPoint x="647" y="459" as="sourcePoint" />
            <mxPoint x="647" y="419" as="targetPoint" />
          </mxGeometry>
        </mxCell>
        <mxCell id="1CfiziOxMAKr9xstee6A-7" value="&lt;font style=&quot;font-size: 20px;&quot;&gt;left index&lt;/font&gt;" style="text;html=1;strokeColor=none;fillColor=none;align=center;verticalAlign=middle;whiteSpace=wrap;rounded=0;strokeWidth=0;" vertex="1" parent="1">
          <mxGeometry x="596" y="466" width="100" height="30" as="geometry" />
        </mxCell>
        <mxCell id="1CfiziOxMAKr9xstee6A-8" value="&lt;font style=&quot;font-size: 40px;&quot;&gt;5&lt;/font&gt;" style="whiteSpace=wrap;html=1;aspect=fixed;strokeWidth=2;fillColor=#f5f5f5;fontColor=#333333;strokeColor=#666666;" vertex="1" parent="1">
          <mxGeometry x="951" y="329" width="80" height="80" as="geometry" />
        </mxCell>
        <mxCell id="1CfiziOxMAKr9xstee6A-9" value="" style="endArrow=classic;html=1;rounded=0;strokeColor=#000000;" edge="1" parent="1">
          <mxGeometry width="50" height="50" relative="1" as="geometry">
            <mxPoint x="751" y="530" as="sourcePoint" />
            <mxPoint x="750.5" y="422" as="targetPoint" />
          </mxGeometry>
        </mxCell>
        <mxCell id="1CfiziOxMAKr9xstee6A-10" value="&lt;font style=&quot;font-size: 20px;&quot;&gt;pivot index&lt;/font&gt;" style="text;html=1;strokeColor=none;fillColor=none;align=center;verticalAlign=middle;whiteSpace=wrap;rounded=0;strokeWidth=0;" vertex="1" parent="1">
          <mxGeometry x="701" y="535" width="100" height="30" as="geometry" />
        </mxCell>
        <mxCell id="1CfiziOxMAKr9xstee6A-11" value="" style="endArrow=classic;html=1;rounded=0;strokeColor=#000000;" edge="1" parent="1">
          <mxGeometry width="50" height="50" relative="1" as="geometry">
            <mxPoint x="697" y="488" as="sourcePoint" />
            <mxPoint x="697" y="418" as="targetPoint" />
          </mxGeometry>
        </mxCell>
        <mxCell id="1CfiziOxMAKr9xstee6A-12" value="&lt;font style=&quot;font-size: 20px;&quot;&gt;right index&lt;/font&gt;" style="text;html=1;strokeColor=none;fillColor=none;align=center;verticalAlign=middle;whiteSpace=wrap;rounded=0;strokeWidth=0;" vertex="1" parent="1">
          <mxGeometry x="652" y="496" width="100" height="30" as="geometry" />
        </mxCell>
      </root>
    </mxGraphModel>
  </diagram>
  <diagram name="Page-3" id="zFsXbmfDm2ugLCHJMSu0">
    <mxGraphModel dx="821" dy="725" grid="0" gridSize="10" guides="1" tooltips="1" connect="1" arrows="1" fold="1" page="0" pageScale="1" pageWidth="827" pageHeight="1169" math="0" shadow="0">
      <root>
        <mxCell id="8vwaOcppap55uPeC6P-n-0" />
        <mxCell id="8vwaOcppap55uPeC6P-n-1" parent="8vwaOcppap55uPeC6P-n-0" />
        <mxCell id="8vwaOcppap55uPeC6P-n-2" value="&lt;font style=&quot;font-size: 40px;&quot;&gt;0&lt;/font&gt;" style="whiteSpace=wrap;html=1;aspect=fixed;strokeWidth=2;" vertex="1" parent="8vwaOcppap55uPeC6P-n-1">
          <mxGeometry x="551" y="329" width="80" height="80" as="geometry" />
        </mxCell>
        <mxCell id="8vwaOcppap55uPeC6P-n-3" value="&lt;font style=&quot;font-size: 40px;&quot;&gt;1&lt;/font&gt;" style="whiteSpace=wrap;html=1;aspect=fixed;strokeWidth=2;" vertex="1" parent="8vwaOcppap55uPeC6P-n-1">
          <mxGeometry x="631" y="329" width="80" height="80" as="geometry" />
        </mxCell>
        <mxCell id="8vwaOcppap55uPeC6P-n-4" value="&lt;font style=&quot;font-size: 40px;&quot;&gt;2&lt;/font&gt;" style="whiteSpace=wrap;html=1;aspect=fixed;strokeWidth=2;" vertex="1" parent="8vwaOcppap55uPeC6P-n-1">
          <mxGeometry x="711" y="329" width="80" height="80" as="geometry" />
        </mxCell>
        <mxCell id="8vwaOcppap55uPeC6P-n-5" value="&lt;font style=&quot;font-size: 40px;&quot;&gt;3&lt;/font&gt;" style="whiteSpace=wrap;html=1;aspect=fixed;strokeWidth=2;fillColor=#e1d5e7;strokeColor=#9673a6;" vertex="1" parent="8vwaOcppap55uPeC6P-n-1">
          <mxGeometry x="791" y="329" width="80" height="80" as="geometry" />
        </mxCell>
        <mxCell id="8vwaOcppap55uPeC6P-n-6" value="&lt;font style=&quot;font-size: 40px;&quot;&gt;6&lt;/font&gt;" style="whiteSpace=wrap;html=1;aspect=fixed;strokeWidth=2;fillColor=#f5f5f5;fontColor=#333333;strokeColor=#666666;" vertex="1" parent="8vwaOcppap55uPeC6P-n-1">
          <mxGeometry x="871" y="329" width="80" height="80" as="geometry" />
        </mxCell>
        <mxCell id="8vwaOcppap55uPeC6P-n-7" value="" style="endArrow=classic;html=1;rounded=0;strokeColor=#000000;" edge="1" parent="8vwaOcppap55uPeC6P-n-1">
          <mxGeometry width="50" height="50" relative="1" as="geometry">
            <mxPoint x="726" y="464" as="sourcePoint" />
            <mxPoint x="726" y="424" as="targetPoint" />
          </mxGeometry>
        </mxCell>
        <mxCell id="8vwaOcppap55uPeC6P-n-8" value="&lt;font style=&quot;font-size: 20px;&quot;&gt;left index&lt;/font&gt;" style="text;html=1;strokeColor=none;fillColor=none;align=center;verticalAlign=middle;whiteSpace=wrap;rounded=0;strokeWidth=0;" vertex="1" parent="8vwaOcppap55uPeC6P-n-1">
          <mxGeometry x="677" y="463" width="100" height="30" as="geometry" />
        </mxCell>
        <mxCell id="8vwaOcppap55uPeC6P-n-9" value="&lt;font style=&quot;font-size: 40px;&quot;&gt;5&lt;/font&gt;" style="whiteSpace=wrap;html=1;aspect=fixed;strokeWidth=2;fillColor=#f5f5f5;fontColor=#333333;strokeColor=#666666;" vertex="1" parent="8vwaOcppap55uPeC6P-n-1">
          <mxGeometry x="951" y="329" width="80" height="80" as="geometry" />
        </mxCell>
        <mxCell id="8vwaOcppap55uPeC6P-n-10" value="" style="endArrow=classic;html=1;rounded=0;strokeColor=#000000;" edge="1" parent="8vwaOcppap55uPeC6P-n-1">
          <mxGeometry width="50" height="50" relative="1" as="geometry">
            <mxPoint x="772.5" y="531" as="sourcePoint" />
            <mxPoint x="772" y="423" as="targetPoint" />
          </mxGeometry>
        </mxCell>
        <mxCell id="8vwaOcppap55uPeC6P-n-11" value="&lt;font style=&quot;font-size: 20px;&quot;&gt;pivot index&lt;/font&gt;" style="text;html=1;strokeColor=none;fillColor=none;align=center;verticalAlign=middle;whiteSpace=wrap;rounded=0;strokeWidth=0;" vertex="1" parent="8vwaOcppap55uPeC6P-n-1">
          <mxGeometry x="726" y="531" width="100" height="30" as="geometry" />
        </mxCell>
        <mxCell id="8vwaOcppap55uPeC6P-n-12" value="" style="endArrow=classic;html=1;rounded=0;strokeColor=#000000;" edge="1" parent="8vwaOcppap55uPeC6P-n-1">
          <mxGeometry width="50" height="50" relative="1" as="geometry">
            <mxPoint x="671" y="493" as="sourcePoint" />
            <mxPoint x="671" y="423" as="targetPoint" />
          </mxGeometry>
        </mxCell>
        <mxCell id="8vwaOcppap55uPeC6P-n-13" value="&lt;font style=&quot;font-size: 20px;&quot;&gt;right index&lt;/font&gt;" style="text;html=1;strokeColor=none;fillColor=none;align=center;verticalAlign=middle;whiteSpace=wrap;rounded=0;strokeWidth=0;" vertex="1" parent="8vwaOcppap55uPeC6P-n-1">
          <mxGeometry x="626" y="501" width="100" height="30" as="geometry" />
        </mxCell>
      </root>
    </mxGraphModel>
  </diagram>
  <diagram name="Page-4" id="yVbwYwI4rzb_gCyOjO6O">
    <mxGraphModel dx="821" dy="725" grid="0" gridSize="10" guides="1" tooltips="1" connect="1" arrows="1" fold="1" page="0" pageScale="1" pageWidth="827" pageHeight="1169" math="0" shadow="0">
      <root>
        <mxCell id="k7Uu3u5jT4IlN7qzOmLL-0" />
        <mxCell id="k7Uu3u5jT4IlN7qzOmLL-1" parent="k7Uu3u5jT4IlN7qzOmLL-0" />
        <mxCell id="k7Uu3u5jT4IlN7qzOmLL-2" value="&lt;font style=&quot;font-size: 40px;&quot;&gt;0&lt;/font&gt;" style="whiteSpace=wrap;html=1;aspect=fixed;strokeWidth=2;" vertex="1" parent="k7Uu3u5jT4IlN7qzOmLL-1">
          <mxGeometry x="551" y="329" width="80" height="80" as="geometry" />
        </mxCell>
        <mxCell id="k7Uu3u5jT4IlN7qzOmLL-3" value="&lt;font style=&quot;font-size: 40px;&quot;&gt;1&lt;/font&gt;" style="whiteSpace=wrap;html=1;aspect=fixed;strokeWidth=2;" vertex="1" parent="k7Uu3u5jT4IlN7qzOmLL-1">
          <mxGeometry x="631" y="329" width="80" height="80" as="geometry" />
        </mxCell>
        <mxCell id="k7Uu3u5jT4IlN7qzOmLL-4" value="&lt;font style=&quot;font-size: 40px;&quot;&gt;2&lt;/font&gt;" style="whiteSpace=wrap;html=1;aspect=fixed;strokeWidth=2;fillColor=#e1d5e7;strokeColor=#9673a6;" vertex="1" parent="k7Uu3u5jT4IlN7qzOmLL-1">
          <mxGeometry x="711" y="329" width="80" height="80" as="geometry" />
        </mxCell>
        <mxCell id="k7Uu3u5jT4IlN7qzOmLL-5" value="&lt;font style=&quot;font-size: 40px;&quot;&gt;3&lt;/font&gt;" style="whiteSpace=wrap;html=1;aspect=fixed;strokeWidth=2;fillColor=#e1d5e7;strokeColor=#9673a6;" vertex="1" parent="k7Uu3u5jT4IlN7qzOmLL-1">
          <mxGeometry x="791" y="329" width="80" height="80" as="geometry" />
        </mxCell>
        <mxCell id="k7Uu3u5jT4IlN7qzOmLL-6" value="&lt;font style=&quot;font-size: 40px;&quot;&gt;6&lt;/font&gt;" style="whiteSpace=wrap;html=1;aspect=fixed;strokeWidth=2;fillColor=#f5f5f5;fontColor=#333333;strokeColor=#666666;" vertex="1" parent="k7Uu3u5jT4IlN7qzOmLL-1">
          <mxGeometry x="871" y="329" width="80" height="80" as="geometry" />
        </mxCell>
        <mxCell id="k7Uu3u5jT4IlN7qzOmLL-7" value="" style="endArrow=classic;html=1;rounded=0;strokeColor=#000000;" edge="1" parent="k7Uu3u5jT4IlN7qzOmLL-1">
          <mxGeometry width="50" height="50" relative="1" as="geometry">
            <mxPoint x="726" y="464" as="sourcePoint" />
            <mxPoint x="726" y="424" as="targetPoint" />
          </mxGeometry>
        </mxCell>
        <mxCell id="k7Uu3u5jT4IlN7qzOmLL-8" value="&lt;font style=&quot;font-size: 20px;&quot;&gt;left index&lt;/font&gt;" style="text;html=1;strokeColor=none;fillColor=none;align=center;verticalAlign=middle;whiteSpace=wrap;rounded=0;strokeWidth=0;" vertex="1" parent="k7Uu3u5jT4IlN7qzOmLL-1">
          <mxGeometry x="677" y="463" width="100" height="30" as="geometry" />
        </mxCell>
        <mxCell id="k7Uu3u5jT4IlN7qzOmLL-9" value="&lt;font style=&quot;font-size: 40px;&quot;&gt;5&lt;/font&gt;" style="whiteSpace=wrap;html=1;aspect=fixed;strokeWidth=2;fillColor=#f5f5f5;fontColor=#333333;strokeColor=#666666;" vertex="1" parent="k7Uu3u5jT4IlN7qzOmLL-1">
          <mxGeometry x="951" y="329" width="80" height="80" as="geometry" />
        </mxCell>
        <mxCell id="k7Uu3u5jT4IlN7qzOmLL-10" value="" style="endArrow=classic;html=1;rounded=0;strokeColor=#000000;" edge="1" parent="k7Uu3u5jT4IlN7qzOmLL-1">
          <mxGeometry width="50" height="50" relative="1" as="geometry">
            <mxPoint x="772.5" y="531" as="sourcePoint" />
            <mxPoint x="772" y="423" as="targetPoint" />
          </mxGeometry>
        </mxCell>
        <mxCell id="k7Uu3u5jT4IlN7qzOmLL-11" value="&lt;font style=&quot;font-size: 20px;&quot;&gt;pivot index&lt;/font&gt;" style="text;html=1;strokeColor=none;fillColor=none;align=center;verticalAlign=middle;whiteSpace=wrap;rounded=0;strokeWidth=0;" vertex="1" parent="k7Uu3u5jT4IlN7qzOmLL-1">
          <mxGeometry x="726" y="531" width="100" height="30" as="geometry" />
        </mxCell>
        <mxCell id="k7Uu3u5jT4IlN7qzOmLL-12" value="" style="endArrow=classic;html=1;rounded=0;strokeColor=#000000;" edge="1" parent="k7Uu3u5jT4IlN7qzOmLL-1">
          <mxGeometry width="50" height="50" relative="1" as="geometry">
            <mxPoint x="671" y="493" as="sourcePoint" />
            <mxPoint x="671" y="423" as="targetPoint" />
          </mxGeometry>
        </mxCell>
        <mxCell id="k7Uu3u5jT4IlN7qzOmLL-13" value="&lt;font style=&quot;font-size: 20px;&quot;&gt;right index&lt;/font&gt;" style="text;html=1;strokeColor=none;fillColor=none;align=center;verticalAlign=middle;whiteSpace=wrap;rounded=0;strokeWidth=0;" vertex="1" parent="k7Uu3u5jT4IlN7qzOmLL-1">
          <mxGeometry x="626" y="501" width="100" height="30" as="geometry" />
        </mxCell>
      </root>
    </mxGraphModel>
  </diagram>
  <diagram name="Page-5" id="biqwr6hp_JW47xhimlUC">
    <mxGraphModel dx="821" dy="725" grid="0" gridSize="10" guides="1" tooltips="1" connect="1" arrows="1" fold="1" page="0" pageScale="1" pageWidth="827" pageHeight="1169" math="0" shadow="0">
      <root>
        <mxCell id="gYgdNSHfpV6GpfPB4paN-0" />
        <mxCell id="gYgdNSHfpV6GpfPB4paN-1" parent="gYgdNSHfpV6GpfPB4paN-0" />
        <mxCell id="gYgdNSHfpV6GpfPB4paN-2" value="&lt;font style=&quot;font-size: 40px;&quot;&gt;0&lt;/font&gt;" style="whiteSpace=wrap;html=1;aspect=fixed;strokeWidth=2;" vertex="1" parent="gYgdNSHfpV6GpfPB4paN-1">
          <mxGeometry x="551" y="329" width="80" height="80" as="geometry" />
        </mxCell>
        <mxCell id="gYgdNSHfpV6GpfPB4paN-3" value="&lt;font style=&quot;font-size: 40px;&quot;&gt;1&lt;/font&gt;" style="whiteSpace=wrap;html=1;aspect=fixed;strokeWidth=2;" vertex="1" parent="gYgdNSHfpV6GpfPB4paN-1">
          <mxGeometry x="631" y="329" width="80" height="80" as="geometry" />
        </mxCell>
        <mxCell id="gYgdNSHfpV6GpfPB4paN-4" value="&lt;font style=&quot;font-size: 40px;&quot;&gt;2&lt;/font&gt;" style="whiteSpace=wrap;html=1;aspect=fixed;strokeWidth=2;fillColor=#e1d5e7;strokeColor=#9673a6;" vertex="1" parent="gYgdNSHfpV6GpfPB4paN-1">
          <mxGeometry x="711" y="329" width="80" height="80" as="geometry" />
        </mxCell>
        <mxCell id="gYgdNSHfpV6GpfPB4paN-5" value="&lt;font style=&quot;font-size: 40px;&quot;&gt;3&lt;/font&gt;" style="whiteSpace=wrap;html=1;aspect=fixed;strokeWidth=2;fillColor=#e1d5e7;strokeColor=#9673a6;" vertex="1" parent="gYgdNSHfpV6GpfPB4paN-1">
          <mxGeometry x="791" y="329" width="80" height="80" as="geometry" />
        </mxCell>
        <mxCell id="gYgdNSHfpV6GpfPB4paN-6" value="&lt;font style=&quot;font-size: 40px;&quot;&gt;6&lt;/font&gt;" style="whiteSpace=wrap;html=1;aspect=fixed;strokeWidth=2;fillColor=#f5f5f5;fontColor=#333333;strokeColor=#666666;" vertex="1" parent="gYgdNSHfpV6GpfPB4paN-1">
          <mxGeometry x="871" y="329" width="80" height="80" as="geometry" />
        </mxCell>
        <mxCell id="gYgdNSHfpV6GpfPB4paN-7" value="" style="endArrow=classic;html=1;rounded=0;strokeColor=#000000;" edge="1" parent="gYgdNSHfpV6GpfPB4paN-1">
          <mxGeometry width="50" height="50" relative="1" as="geometry">
            <mxPoint x="570" y="460" as="sourcePoint" />
            <mxPoint x="570" y="420" as="targetPoint" />
          </mxGeometry>
        </mxCell>
        <mxCell id="gYgdNSHfpV6GpfPB4paN-8" value="&lt;font style=&quot;font-size: 20px;&quot;&gt;left index&lt;/font&gt;" style="text;html=1;strokeColor=none;fillColor=none;align=center;verticalAlign=middle;whiteSpace=wrap;rounded=0;strokeWidth=0;" vertex="1" parent="gYgdNSHfpV6GpfPB4paN-1">
          <mxGeometry x="504" y="459" width="100" height="30" as="geometry" />
        </mxCell>
        <mxCell id="gYgdNSHfpV6GpfPB4paN-9" value="&lt;font style=&quot;font-size: 40px;&quot;&gt;5&lt;/font&gt;" style="whiteSpace=wrap;html=1;aspect=fixed;strokeWidth=2;fillColor=#f5f5f5;fontColor=#333333;strokeColor=#666666;" vertex="1" parent="gYgdNSHfpV6GpfPB4paN-1">
          <mxGeometry x="951" y="329" width="80" height="80" as="geometry" />
        </mxCell>
        <mxCell id="gYgdNSHfpV6GpfPB4paN-10" value="" style="endArrow=classic;html=1;rounded=0;strokeColor=#000000;" edge="1" parent="gYgdNSHfpV6GpfPB4paN-1">
          <mxGeometry width="50" height="50" relative="1" as="geometry">
            <mxPoint x="671" y="532" as="sourcePoint" />
            <mxPoint x="670.5" y="424" as="targetPoint" />
          </mxGeometry>
        </mxCell>
        <mxCell id="gYgdNSHfpV6GpfPB4paN-11" value="&lt;font style=&quot;font-size: 20px;&quot;&gt;pivot index&lt;/font&gt;" style="text;html=1;strokeColor=none;fillColor=none;align=center;verticalAlign=middle;whiteSpace=wrap;rounded=0;strokeWidth=0;" vertex="1" parent="gYgdNSHfpV6GpfPB4paN-1">
          <mxGeometry x="621" y="531" width="100" height="30" as="geometry" />
        </mxCell>
        <mxCell id="gYgdNSHfpV6GpfPB4paN-12" value="" style="endArrow=classic;html=1;rounded=0;strokeColor=#000000;" edge="1" parent="gYgdNSHfpV6GpfPB4paN-1">
          <mxGeometry width="50" height="50" relative="1" as="geometry">
            <mxPoint x="611" y="489" as="sourcePoint" />
            <mxPoint x="611" y="419" as="targetPoint" />
          </mxGeometry>
        </mxCell>
        <mxCell id="gYgdNSHfpV6GpfPB4paN-13" value="&lt;font style=&quot;font-size: 20px;&quot;&gt;right index&lt;/font&gt;" style="text;html=1;strokeColor=none;fillColor=none;align=center;verticalAlign=middle;whiteSpace=wrap;rounded=0;strokeWidth=0;" vertex="1" parent="gYgdNSHfpV6GpfPB4paN-1">
          <mxGeometry x="546" y="489" width="100" height="30" as="geometry" />
        </mxCell>
      </root>
    </mxGraphModel>
  </diagram>
  <diagram name="Page-6" id="OKwUw9IK0Vk45hdsZio4">
    <mxGraphModel dx="821" dy="725" grid="0" gridSize="10" guides="1" tooltips="1" connect="1" arrows="1" fold="1" page="0" pageScale="1" pageWidth="827" pageHeight="1169" math="0" shadow="0">
      <root>
        <mxCell id="1qWxzU3vMm6Q-pXZRj2a-0" />
        <mxCell id="1qWxzU3vMm6Q-pXZRj2a-1" parent="1qWxzU3vMm6Q-pXZRj2a-0" />
        <mxCell id="1qWxzU3vMm6Q-pXZRj2a-2" value="&lt;font style=&quot;font-size: 40px;&quot;&gt;0&lt;/font&gt;" style="whiteSpace=wrap;html=1;aspect=fixed;strokeWidth=2;" vertex="1" parent="1qWxzU3vMm6Q-pXZRj2a-1">
          <mxGeometry x="551" y="329" width="80" height="80" as="geometry" />
        </mxCell>
        <mxCell id="1qWxzU3vMm6Q-pXZRj2a-3" value="&lt;font style=&quot;font-size: 40px;&quot;&gt;1&lt;/font&gt;" style="whiteSpace=wrap;html=1;aspect=fixed;strokeWidth=2;" vertex="1" parent="1qWxzU3vMm6Q-pXZRj2a-1">
          <mxGeometry x="631" y="329" width="80" height="80" as="geometry" />
        </mxCell>
        <mxCell id="1qWxzU3vMm6Q-pXZRj2a-4" value="&lt;font style=&quot;font-size: 40px;&quot;&gt;2&lt;/font&gt;" style="whiteSpace=wrap;html=1;aspect=fixed;strokeWidth=2;fillColor=#e1d5e7;strokeColor=#9673a6;" vertex="1" parent="1qWxzU3vMm6Q-pXZRj2a-1">
          <mxGeometry x="711" y="329" width="80" height="80" as="geometry" />
        </mxCell>
        <mxCell id="1qWxzU3vMm6Q-pXZRj2a-5" value="&lt;font style=&quot;font-size: 40px;&quot;&gt;3&lt;/font&gt;" style="whiteSpace=wrap;html=1;aspect=fixed;strokeWidth=2;fillColor=#e1d5e7;strokeColor=#9673a6;" vertex="1" parent="1qWxzU3vMm6Q-pXZRj2a-1">
          <mxGeometry x="791" y="329" width="80" height="80" as="geometry" />
        </mxCell>
        <mxCell id="1qWxzU3vMm6Q-pXZRj2a-6" value="&lt;font style=&quot;font-size: 40px;&quot;&gt;6&lt;/font&gt;" style="whiteSpace=wrap;html=1;aspect=fixed;strokeWidth=2;fillColor=#f5f5f5;fontColor=#333333;strokeColor=#666666;" vertex="1" parent="1qWxzU3vMm6Q-pXZRj2a-1">
          <mxGeometry x="871" y="329" width="80" height="80" as="geometry" />
        </mxCell>
        <mxCell id="1qWxzU3vMm6Q-pXZRj2a-7" value="" style="endArrow=classic;html=1;rounded=0;strokeColor=#000000;" edge="1" parent="1qWxzU3vMm6Q-pXZRj2a-1">
          <mxGeometry width="50" height="50" relative="1" as="geometry">
            <mxPoint x="644" y="461" as="sourcePoint" />
            <mxPoint x="644" y="421" as="targetPoint" />
          </mxGeometry>
        </mxCell>
        <mxCell id="1qWxzU3vMm6Q-pXZRj2a-8" value="&lt;font style=&quot;font-size: 20px;&quot;&gt;left index&lt;/font&gt;" style="text;html=1;strokeColor=none;fillColor=none;align=center;verticalAlign=middle;whiteSpace=wrap;rounded=0;strokeWidth=0;" vertex="1" parent="1qWxzU3vMm6Q-pXZRj2a-1">
          <mxGeometry x="590" y="462" width="100" height="30" as="geometry" />
        </mxCell>
        <mxCell id="1qWxzU3vMm6Q-pXZRj2a-9" value="&lt;font style=&quot;font-size: 40px;&quot;&gt;5&lt;/font&gt;" style="whiteSpace=wrap;html=1;aspect=fixed;strokeWidth=2;fillColor=#f5f5f5;fontColor=#333333;strokeColor=#666666;" vertex="1" parent="1qWxzU3vMm6Q-pXZRj2a-1">
          <mxGeometry x="951" y="329" width="80" height="80" as="geometry" />
        </mxCell>
        <mxCell id="1qWxzU3vMm6Q-pXZRj2a-10" value="" style="endArrow=classic;html=1;rounded=0;strokeColor=#000000;" edge="1" parent="1qWxzU3vMm6Q-pXZRj2a-1">
          <mxGeometry width="50" height="50" relative="1" as="geometry">
            <mxPoint x="698" y="528" as="sourcePoint" />
            <mxPoint x="697.5" y="420" as="targetPoint" />
          </mxGeometry>
        </mxCell>
        <mxCell id="1qWxzU3vMm6Q-pXZRj2a-11" value="&lt;font style=&quot;font-size: 20px;&quot;&gt;pivot index&lt;/font&gt;" style="text;html=1;strokeColor=none;fillColor=none;align=center;verticalAlign=middle;whiteSpace=wrap;rounded=0;strokeWidth=0;" vertex="1" parent="1qWxzU3vMm6Q-pXZRj2a-1">
          <mxGeometry x="648" y="527" width="100" height="30" as="geometry" />
        </mxCell>
        <mxCell id="1qWxzU3vMm6Q-pXZRj2a-12" value="" style="endArrow=classic;html=1;rounded=0;strokeColor=#000000;" edge="1" parent="1qWxzU3vMm6Q-pXZRj2a-1">
          <mxGeometry width="50" height="50" relative="1" as="geometry">
            <mxPoint x="584" y="489" as="sourcePoint" />
            <mxPoint x="584" y="419" as="targetPoint" />
          </mxGeometry>
        </mxCell>
        <mxCell id="1qWxzU3vMm6Q-pXZRj2a-13" value="&lt;font style=&quot;font-size: 20px;&quot;&gt;right index&lt;/font&gt;" style="text;html=1;strokeColor=none;fillColor=none;align=center;verticalAlign=middle;whiteSpace=wrap;rounded=0;strokeWidth=0;" vertex="1" parent="1qWxzU3vMm6Q-pXZRj2a-1">
          <mxGeometry x="533" y="490" width="100" height="30" as="geometry" />
        </mxCell>
      </root>
    </mxGraphModel>
  </diagram>
  <diagram name="Page-7" id="_E7Xj-b5xqbYtyx-w-QG">
    <mxGraphModel dx="821" dy="725" grid="0" gridSize="10" guides="1" tooltips="1" connect="1" arrows="1" fold="1" page="0" pageScale="1" pageWidth="827" pageHeight="1169" math="0" shadow="0">
      <root>
        <mxCell id="QGJgMuKS4nwXCkR7N7ze-0" />
        <mxCell id="QGJgMuKS4nwXCkR7N7ze-1" parent="QGJgMuKS4nwXCkR7N7ze-0" />
        <mxCell id="QGJgMuKS4nwXCkR7N7ze-2" value="&lt;font style=&quot;font-size: 40px;&quot;&gt;0&lt;/font&gt;" style="whiteSpace=wrap;html=1;aspect=fixed;strokeWidth=2;" vertex="1" parent="QGJgMuKS4nwXCkR7N7ze-1">
          <mxGeometry x="551" y="329" width="80" height="80" as="geometry" />
        </mxCell>
        <mxCell id="QGJgMuKS4nwXCkR7N7ze-3" value="&lt;font style=&quot;font-size: 40px;&quot;&gt;1&lt;/font&gt;" style="whiteSpace=wrap;html=1;aspect=fixed;strokeWidth=2;fillColor=#e1d5e7;strokeColor=#9673a6;" vertex="1" parent="QGJgMuKS4nwXCkR7N7ze-1">
          <mxGeometry x="631" y="329" width="80" height="80" as="geometry" />
        </mxCell>
        <mxCell id="QGJgMuKS4nwXCkR7N7ze-4" value="&lt;font style=&quot;font-size: 40px;&quot;&gt;2&lt;/font&gt;" style="whiteSpace=wrap;html=1;aspect=fixed;strokeWidth=2;fillColor=#e1d5e7;strokeColor=#9673a6;" vertex="1" parent="QGJgMuKS4nwXCkR7N7ze-1">
          <mxGeometry x="711" y="329" width="80" height="80" as="geometry" />
        </mxCell>
        <mxCell id="QGJgMuKS4nwXCkR7N7ze-5" value="&lt;font style=&quot;font-size: 40px;&quot;&gt;3&lt;/font&gt;" style="whiteSpace=wrap;html=1;aspect=fixed;strokeWidth=2;fillColor=#e1d5e7;strokeColor=#9673a6;" vertex="1" parent="QGJgMuKS4nwXCkR7N7ze-1">
          <mxGeometry x="791" y="329" width="80" height="80" as="geometry" />
        </mxCell>
        <mxCell id="QGJgMuKS4nwXCkR7N7ze-6" value="&lt;font style=&quot;font-size: 40px;&quot;&gt;6&lt;/font&gt;" style="whiteSpace=wrap;html=1;aspect=fixed;strokeWidth=2;fillColor=#f5f5f5;fontColor=#333333;strokeColor=#666666;" vertex="1" parent="QGJgMuKS4nwXCkR7N7ze-1">
          <mxGeometry x="871" y="329" width="80" height="80" as="geometry" />
        </mxCell>
        <mxCell id="QGJgMuKS4nwXCkR7N7ze-7" value="" style="endArrow=classic;html=1;rounded=0;strokeColor=#007FFF;" edge="1" parent="QGJgMuKS4nwXCkR7N7ze-1">
          <mxGeometry width="50" height="50" relative="1" as="geometry">
            <mxPoint x="644" y="461" as="sourcePoint" />
            <mxPoint x="644" y="421" as="targetPoint" />
          </mxGeometry>
        </mxCell>
        <mxCell id="QGJgMuKS4nwXCkR7N7ze-8" value="&lt;font color=&quot;#3399ff&quot; style=&quot;font-size: 20px;&quot;&gt;left index&lt;/font&gt;" style="text;html=1;strokeColor=none;fillColor=none;align=center;verticalAlign=middle;whiteSpace=wrap;rounded=0;strokeWidth=0;" vertex="1" parent="QGJgMuKS4nwXCkR7N7ze-1">
          <mxGeometry x="590" y="462" width="100" height="30" as="geometry" />
        </mxCell>
        <mxCell id="QGJgMuKS4nwXCkR7N7ze-9" value="&lt;font style=&quot;font-size: 40px;&quot;&gt;5&lt;/font&gt;" style="whiteSpace=wrap;html=1;aspect=fixed;strokeWidth=2;fillColor=#f5f5f5;fontColor=#333333;strokeColor=#666666;" vertex="1" parent="QGJgMuKS4nwXCkR7N7ze-1">
          <mxGeometry x="951" y="329" width="80" height="80" as="geometry" />
        </mxCell>
        <mxCell id="QGJgMuKS4nwXCkR7N7ze-10" value="" style="endArrow=classic;html=1;rounded=0;strokeColor=#CC0000;" edge="1" parent="QGJgMuKS4nwXCkR7N7ze-1">
          <mxGeometry width="50" height="50" relative="1" as="geometry">
            <mxPoint x="698" y="528" as="sourcePoint" />
            <mxPoint x="697.5" y="420" as="targetPoint" />
          </mxGeometry>
        </mxCell>
        <mxCell id="QGJgMuKS4nwXCkR7N7ze-11" value="&lt;font color=&quot;#cc0000&quot; style=&quot;font-size: 20px;&quot;&gt;pivot index&lt;/font&gt;" style="text;html=1;strokeColor=none;fillColor=none;align=center;verticalAlign=middle;whiteSpace=wrap;rounded=0;strokeWidth=0;" vertex="1" parent="QGJgMuKS4nwXCkR7N7ze-1">
          <mxGeometry x="648" y="527" width="100" height="30" as="geometry" />
        </mxCell>
        <mxCell id="QGJgMuKS4nwXCkR7N7ze-12" value="" style="endArrow=classic;html=1;rounded=0;strokeColor=#7F00FF;" edge="1" parent="QGJgMuKS4nwXCkR7N7ze-1">
          <mxGeometry width="50" height="50" relative="1" as="geometry">
            <mxPoint x="584" y="489" as="sourcePoint" />
            <mxPoint x="584" y="419" as="targetPoint" />
          </mxGeometry>
        </mxCell>
        <mxCell id="QGJgMuKS4nwXCkR7N7ze-13" value="&lt;font color=&quot;#7f00ff&quot; style=&quot;font-size: 20px;&quot;&gt;right index&lt;/font&gt;" style="text;html=1;strokeColor=none;fillColor=none;align=center;verticalAlign=middle;whiteSpace=wrap;rounded=0;strokeWidth=0;" vertex="1" parent="QGJgMuKS4nwXCkR7N7ze-1">
          <mxGeometry x="533" y="490" width="100" height="30" as="geometry" />
        </mxCell>
      </root>
    </mxGraphModel>
  </diagram>
  <diagram name="Page-8" id="1rqX2CjtZVCaxqi_taxa">
    <mxGraphModel dx="821" dy="725" grid="0" gridSize="10" guides="1" tooltips="1" connect="1" arrows="1" fold="1" page="0" pageScale="1" pageWidth="827" pageHeight="1169" math="0" shadow="0">
      <root>
        <mxCell id="05SGiJj9y-Hk3XmaIq81-0" />
        <mxCell id="05SGiJj9y-Hk3XmaIq81-1" parent="05SGiJj9y-Hk3XmaIq81-0" />
        <mxCell id="05SGiJj9y-Hk3XmaIq81-2" value="&lt;font style=&quot;font-size: 40px;&quot;&gt;0&lt;/font&gt;" style="whiteSpace=wrap;html=1;aspect=fixed;strokeWidth=2;" vertex="1" parent="05SGiJj9y-Hk3XmaIq81-1">
          <mxGeometry x="551" y="329" width="80" height="80" as="geometry" />
        </mxCell>
        <mxCell id="05SGiJj9y-Hk3XmaIq81-3" value="&lt;font style=&quot;font-size: 40px;&quot;&gt;1&lt;/font&gt;" style="whiteSpace=wrap;html=1;aspect=fixed;strokeWidth=2;fillColor=#e1d5e7;strokeColor=#9673a6;" vertex="1" parent="05SGiJj9y-Hk3XmaIq81-1">
          <mxGeometry x="631" y="329" width="80" height="80" as="geometry" />
        </mxCell>
        <mxCell id="05SGiJj9y-Hk3XmaIq81-4" value="&lt;font style=&quot;font-size: 40px;&quot;&gt;2&lt;/font&gt;" style="whiteSpace=wrap;html=1;aspect=fixed;strokeWidth=2;fillColor=#e1d5e7;strokeColor=#9673a6;" vertex="1" parent="05SGiJj9y-Hk3XmaIq81-1">
          <mxGeometry x="711" y="329" width="80" height="80" as="geometry" />
        </mxCell>
        <mxCell id="05SGiJj9y-Hk3XmaIq81-5" value="&lt;font style=&quot;font-size: 40px;&quot;&gt;3&lt;/font&gt;" style="whiteSpace=wrap;html=1;aspect=fixed;strokeWidth=2;fillColor=#e1d5e7;strokeColor=#9673a6;" vertex="1" parent="05SGiJj9y-Hk3XmaIq81-1">
          <mxGeometry x="791" y="329" width="80" height="80" as="geometry" />
        </mxCell>
        <mxCell id="05SGiJj9y-Hk3XmaIq81-6" value="&lt;font style=&quot;font-size: 40px;&quot;&gt;6&lt;/font&gt;" style="whiteSpace=wrap;html=1;aspect=fixed;strokeWidth=2;fillColor=#f5f5f5;fontColor=#333333;strokeColor=#666666;" vertex="1" parent="05SGiJj9y-Hk3XmaIq81-1">
          <mxGeometry x="871" y="329" width="80" height="80" as="geometry" />
        </mxCell>
        <mxCell id="05SGiJj9y-Hk3XmaIq81-7" value="" style="endArrow=classic;html=1;rounded=0;strokeColor=#007FFF;" edge="1" parent="05SGiJj9y-Hk3XmaIq81-1">
          <mxGeometry width="50" height="50" relative="1" as="geometry">
            <mxPoint x="563" y="455" as="sourcePoint" />
            <mxPoint x="563" y="415" as="targetPoint" />
          </mxGeometry>
        </mxCell>
        <mxCell id="05SGiJj9y-Hk3XmaIq81-8" value="&lt;font color=&quot;#3399ff&quot; style=&quot;font-size: 20px;&quot;&gt;left index&lt;/font&gt;" style="text;html=1;strokeColor=none;fillColor=none;align=center;verticalAlign=middle;whiteSpace=wrap;rounded=0;strokeWidth=0;" vertex="1" parent="05SGiJj9y-Hk3XmaIq81-1">
          <mxGeometry x="484" y="455" width="100" height="30" as="geometry" />
        </mxCell>
        <mxCell id="05SGiJj9y-Hk3XmaIq81-9" value="&lt;font style=&quot;font-size: 40px;&quot;&gt;5&lt;/font&gt;" style="whiteSpace=wrap;html=1;aspect=fixed;strokeWidth=2;fillColor=#f5f5f5;fontColor=#333333;strokeColor=#666666;" vertex="1" parent="05SGiJj9y-Hk3XmaIq81-1">
          <mxGeometry x="951" y="329" width="80" height="80" as="geometry" />
        </mxCell>
        <mxCell id="05SGiJj9y-Hk3XmaIq81-10" value="" style="endArrow=classic;html=1;rounded=0;strokeColor=#CC0000;" edge="1" parent="05SGiJj9y-Hk3XmaIq81-1">
          <mxGeometry width="50" height="50" relative="1" as="geometry">
            <mxPoint x="618" y="516" as="sourcePoint" />
            <mxPoint x="618" y="415" as="targetPoint" />
          </mxGeometry>
        </mxCell>
        <mxCell id="05SGiJj9y-Hk3XmaIq81-11" value="&lt;font color=&quot;#cc0000&quot; style=&quot;font-size: 20px;&quot;&gt;pivot index&lt;/font&gt;" style="text;html=1;strokeColor=none;fillColor=none;align=center;verticalAlign=middle;whiteSpace=wrap;rounded=0;strokeWidth=0;" vertex="1" parent="05SGiJj9y-Hk3XmaIq81-1">
          <mxGeometry x="536" y="517" width="100" height="30" as="geometry" />
        </mxCell>
        <mxCell id="05SGiJj9y-Hk3XmaIq81-12" value="" style="endArrow=classic;html=1;rounded=0;strokeColor=#7F00FF;" edge="1" parent="05SGiJj9y-Hk3XmaIq81-1">
          <mxGeometry width="50" height="50" relative="1" as="geometry">
            <mxPoint x="590.5" y="484" as="sourcePoint" />
            <mxPoint x="590.5" y="414" as="targetPoint" />
          </mxGeometry>
        </mxCell>
        <mxCell id="05SGiJj9y-Hk3XmaIq81-13" value="&lt;font color=&quot;#7f00ff&quot; style=&quot;font-size: 20px;&quot;&gt;right index&lt;/font&gt;" style="text;html=1;strokeColor=none;fillColor=none;align=center;verticalAlign=middle;whiteSpace=wrap;rounded=0;strokeWidth=0;" vertex="1" parent="05SGiJj9y-Hk3XmaIq81-1">
          <mxGeometry x="510" y="485" width="100" height="30" as="geometry" />
        </mxCell>
        <mxCell id="YukBPk1HGLqa3-VjA08p-0" style="edgeStyle=orthogonalEdgeStyle;rounded=0;orthogonalLoop=1;jettySize=auto;html=1;exitX=0.5;exitY=1;exitDx=0;exitDy=0;" edge="1" parent="05SGiJj9y-Hk3XmaIq81-1" source="05SGiJj9y-Hk3XmaIq81-13" target="05SGiJj9y-Hk3XmaIq81-13">
          <mxGeometry relative="1" as="geometry" />
        </mxCell>
      </root>
    </mxGraphModel>
  </diagram>
  <diagram name="Page-9" id="UxjXdX6TYS7W1xbtXlJQ">
    <mxGraphModel dx="821" dy="725" grid="0" gridSize="10" guides="1" tooltips="1" connect="1" arrows="1" fold="1" page="0" pageScale="1" pageWidth="827" pageHeight="1169" math="0" shadow="0">
      <root>
        <mxCell id="xjiEgO0ZGFw9AitMap0X-0" />
        <mxCell id="xjiEgO0ZGFw9AitMap0X-1" parent="xjiEgO0ZGFw9AitMap0X-0" />
        <mxCell id="xjiEgO0ZGFw9AitMap0X-2" value="&lt;font style=&quot;font-size: 40px;&quot;&gt;0&lt;/font&gt;" style="whiteSpace=wrap;html=1;aspect=fixed;strokeWidth=2;fillColor=#e1d5e7;strokeColor=#9673a6;" vertex="1" parent="xjiEgO0ZGFw9AitMap0X-1">
          <mxGeometry x="551" y="329" width="80" height="80" as="geometry" />
        </mxCell>
        <mxCell id="xjiEgO0ZGFw9AitMap0X-3" value="&lt;font style=&quot;font-size: 40px;&quot;&gt;1&lt;/font&gt;" style="whiteSpace=wrap;html=1;aspect=fixed;strokeWidth=2;fillColor=#e1d5e7;strokeColor=#9673a6;" vertex="1" parent="xjiEgO0ZGFw9AitMap0X-1">
          <mxGeometry x="631" y="329" width="80" height="80" as="geometry" />
        </mxCell>
        <mxCell id="xjiEgO0ZGFw9AitMap0X-4" value="&lt;font style=&quot;font-size: 40px;&quot;&gt;2&lt;/font&gt;" style="whiteSpace=wrap;html=1;aspect=fixed;strokeWidth=2;fillColor=#e1d5e7;strokeColor=#9673a6;" vertex="1" parent="xjiEgO0ZGFw9AitMap0X-1">
          <mxGeometry x="711" y="329" width="80" height="80" as="geometry" />
        </mxCell>
        <mxCell id="xjiEgO0ZGFw9AitMap0X-5" value="&lt;font style=&quot;font-size: 40px;&quot;&gt;3&lt;/font&gt;" style="whiteSpace=wrap;html=1;aspect=fixed;strokeWidth=2;fillColor=#e1d5e7;strokeColor=#9673a6;" vertex="1" parent="xjiEgO0ZGFw9AitMap0X-1">
          <mxGeometry x="791" y="329" width="80" height="80" as="geometry" />
        </mxCell>
        <mxCell id="xjiEgO0ZGFw9AitMap0X-6" value="&lt;font style=&quot;font-size: 40px;&quot;&gt;6&lt;/font&gt;" style="whiteSpace=wrap;html=1;aspect=fixed;strokeWidth=2;fillColor=#f5f5f5;fontColor=#333333;strokeColor=#666666;" vertex="1" parent="xjiEgO0ZGFw9AitMap0X-1">
          <mxGeometry x="871" y="329" width="80" height="80" as="geometry" />
        </mxCell>
        <mxCell id="xjiEgO0ZGFw9AitMap0X-7" value="" style="endArrow=classic;html=1;rounded=0;strokeColor=#007FFF;" edge="1" parent="xjiEgO0ZGFw9AitMap0X-1">
          <mxGeometry width="50" height="50" relative="1" as="geometry">
            <mxPoint x="563" y="455" as="sourcePoint" />
            <mxPoint x="563" y="415" as="targetPoint" />
          </mxGeometry>
        </mxCell>
        <mxCell id="xjiEgO0ZGFw9AitMap0X-8" value="&lt;font color=&quot;#3399ff&quot; style=&quot;font-size: 20px;&quot;&gt;left index&lt;/font&gt;" style="text;html=1;strokeColor=none;fillColor=none;align=center;verticalAlign=middle;whiteSpace=wrap;rounded=0;strokeWidth=0;" vertex="1" parent="xjiEgO0ZGFw9AitMap0X-1">
          <mxGeometry x="484" y="455" width="100" height="30" as="geometry" />
        </mxCell>
        <mxCell id="xjiEgO0ZGFw9AitMap0X-9" value="&lt;font style=&quot;font-size: 40px;&quot;&gt;5&lt;/font&gt;" style="whiteSpace=wrap;html=1;aspect=fixed;strokeWidth=2;fillColor=#f5f5f5;fontColor=#333333;strokeColor=#666666;" vertex="1" parent="xjiEgO0ZGFw9AitMap0X-1">
          <mxGeometry x="951" y="329" width="80" height="80" as="geometry" />
        </mxCell>
        <mxCell id="xjiEgO0ZGFw9AitMap0X-10" value="" style="endArrow=classic;html=1;rounded=0;strokeColor=#CC0000;" edge="1" parent="xjiEgO0ZGFw9AitMap0X-1">
          <mxGeometry width="50" height="50" relative="1" as="geometry">
            <mxPoint x="618" y="516" as="sourcePoint" />
            <mxPoint x="618" y="415" as="targetPoint" />
          </mxGeometry>
        </mxCell>
        <mxCell id="xjiEgO0ZGFw9AitMap0X-11" value="&lt;font color=&quot;#cc0000&quot; style=&quot;font-size: 20px;&quot;&gt;pivot index&lt;/font&gt;" style="text;html=1;strokeColor=none;fillColor=none;align=center;verticalAlign=middle;whiteSpace=wrap;rounded=0;strokeWidth=0;" vertex="1" parent="xjiEgO0ZGFw9AitMap0X-1">
          <mxGeometry x="536" y="517" width="100" height="30" as="geometry" />
        </mxCell>
        <mxCell id="xjiEgO0ZGFw9AitMap0X-12" value="" style="endArrow=classic;html=1;rounded=0;strokeColor=#7F00FF;" edge="1" parent="xjiEgO0ZGFw9AitMap0X-1">
          <mxGeometry width="50" height="50" relative="1" as="geometry">
            <mxPoint x="590.5" y="484" as="sourcePoint" />
            <mxPoint x="590.5" y="414" as="targetPoint" />
          </mxGeometry>
        </mxCell>
        <mxCell id="xjiEgO0ZGFw9AitMap0X-13" value="&lt;font color=&quot;#7f00ff&quot; style=&quot;font-size: 20px;&quot;&gt;right index&lt;/font&gt;" style="text;html=1;strokeColor=none;fillColor=none;align=center;verticalAlign=middle;whiteSpace=wrap;rounded=0;strokeWidth=0;" vertex="1" parent="xjiEgO0ZGFw9AitMap0X-1">
          <mxGeometry x="510" y="485" width="100" height="30" as="geometry" />
        </mxCell>
        <mxCell id="xjiEgO0ZGFw9AitMap0X-14" style="edgeStyle=orthogonalEdgeStyle;rounded=0;orthogonalLoop=1;jettySize=auto;html=1;exitX=0.5;exitY=1;exitDx=0;exitDy=0;" edge="1" parent="xjiEgO0ZGFw9AitMap0X-1" source="xjiEgO0ZGFw9AitMap0X-13" target="xjiEgO0ZGFw9AitMap0X-13">
          <mxGeometry relative="1" as="geometry" />
        </mxCell>
      </root>
    </mxGraphModel>
  </diagram>
</mxfile>
